<svg width="283" height="76" viewBox="0 0 283 76" fill="none" xmlns="http://www.w3.org/2000/svg">
<g clip-path="url(#clip0)">
<path d="M215.268 32.6578L207.302 20.2792H200.238V32.6578H194.706V0.575684H208.845C216.366 0.575684 220.354 4.07516 220.354 10.0743C220.354 15.5408 217.257 18.3339 213.258 19.2903L221.887 32.6469H215.268V32.6578ZM207.748 5.70535H200.227V15.1822H207.748C212.16 15.1822 214.594 13.2912 214.594 10.259C214.594 6.78127 211.943 5.70535 207.748 5.70535Z" fill="white"/>
<path d="M234.493 32.6578H222.56V0.575684H234.493C244.883 0.575684 251.512 7.24859 251.512 16.5624C251.512 25.648 245.1 32.6578 234.493 32.6578ZM234.493 5.70535H228.07V27.5281H234.493C241.34 27.5281 245.524 23.1049 245.524 16.6602C245.524 10.3242 241.34 5.70535 234.493 5.70535Z" fill="white"/>
<path d="M104.513 32.6578L95.916 9.6504V32.6578H90.3843V0.575684H98.3396L106.088 21.1921L114.022 0.575684H121.977V32.6578H116.456V9.60693L107.621 32.6578H104.513Z" fill="white"/>
<path d="M71.3869 33.2341C61.6601 33.2341 54.5742 25.8765 54.5742 16.6388C54.5634 7.37932 61.6601 0 71.3869 0C81.3311 0 88.1887 7.35759 88.1887 16.5953C88.1887 25.8331 81.3311 33.2341 71.3869 33.2341ZM71.3869 5.184C64.964 5.184 60.5516 10.1833 60.5516 16.5953C60.5516 22.9639 64.964 28.0284 71.3869 28.0284C77.7881 28.0284 82.2005 23.04 82.2005 16.6279C82.2005 10.2593 77.7881 5.184 71.3869 5.184Z" fill="white"/>
<path d="M175.698 33.234C165.982 33.234 158.885 25.8764 158.885 16.6387C158.885 7.39007 165.971 0.0107422 175.698 0.0107422C185.642 0.0107422 192.489 7.36833 192.489 16.6061C192.489 25.8438 185.653 33.234 175.698 33.234ZM175.698 5.18388C169.275 5.18388 164.863 10.1831 164.863 16.5952C164.863 22.9638 169.503 28.0283 175.698 28.0283C182.099 28.0283 186.512 23.0399 186.512 16.6278C186.512 10.2592 182.099 5.18388 175.698 5.18388Z" fill="white"/>
<path d="M45.0652 32.6578H39.566V5.70535H28.5024V0.575684H55.9114V5.70535H45.0652V32.6578Z" fill="white"/>
<path d="M158.472 5.70535H140.116V15.1822H157.124V20.3118H140.116V32.6578H134.595V0.575684H158.472V5.70535Z" fill="white"/>
<path d="M0.821777 41.9175H6.51657C9.90737 41.9175 12.0049 43.8411 12.0049 46.7537V46.7972C12.0049 50.0358 9.40744 51.7312 6.22314 51.7312H3.36487V56.3718H0.821777V41.9175ZM6.32095 49.4381C8.24457 49.4381 9.44005 48.3622 9.44005 46.8515V46.808C9.44005 45.1127 8.22284 44.2324 6.32095 44.2324H3.36487V49.4381H6.32095Z" fill="white" stroke="white" stroke-width="0.135849" stroke-miterlimit="10"/>
<path d="M13.7876 41.9175H16.3307V54.057H23.9274V56.3718H13.7876V41.9175Z" fill="white" stroke="white" stroke-width="0.135849" stroke-miterlimit="10"/>
<path d="M30.8494 41.8198H33.2078L39.5655 56.372H36.8811L35.414 52.8834H28.578L27.0891 56.372H24.4917L30.8494 41.8198ZM34.4793 50.6337L31.9797 44.852L29.5018 50.6337H34.4793Z" fill="white" stroke="white" stroke-width="0.135849" stroke-miterlimit="10"/>
<path d="M40.0117 54.2634L41.5441 52.4484C42.9243 53.6439 44.3263 54.3286 46.1086 54.3286C47.6736 54.3286 48.6735 53.5896 48.6735 52.5137V52.4702C48.6735 51.4377 48.0975 50.8835 45.4131 50.264C42.3375 49.525 40.5986 48.6121 40.5986 45.9494V45.906C40.5986 43.4281 42.6635 41.7109 45.5326 41.7109C47.641 41.7109 49.3147 42.3521 50.7818 43.5259L49.4233 45.4495C48.1192 44.4823 46.8259 43.9606 45.5 43.9606C44.0111 43.9606 43.1417 44.7214 43.1417 45.6777V45.7212C43.1417 46.8406 43.8046 47.3297 46.5868 47.9926C49.6407 48.7316 51.2166 49.8293 51.2166 52.2202V52.2637C51.2166 54.9698 49.0864 56.5783 46.0543 56.5783C43.8372 56.5783 41.7506 55.8175 40.0117 54.2634Z" fill="white" stroke="white" stroke-width="0.135849" stroke-miterlimit="10"/>
<path d="M56.6178 44.2758H52.0098V41.9175H63.758V44.2758H59.15V56.3718H56.6178V44.2758Z" fill="white" stroke="white" stroke-width="0.135849" stroke-miterlimit="10"/>
<path d="M65.7251 41.9175H68.2682V56.3718H65.7251V41.9175Z" fill="white" stroke="white" stroke-width="0.135849" stroke-miterlimit="10"/>
<path d="M70.6587 49.1881V49.1446C70.6587 45.0365 73.7343 41.6675 78.0924 41.6675C80.7767 41.6675 82.3852 42.6021 83.7654 43.9171L82.1352 45.7973C80.9615 44.7214 79.7443 44.0258 78.0706 44.0258C75.3428 44.0258 73.3213 46.2755 73.3213 49.1011V49.1446C73.3213 51.9703 75.321 54.2634 78.0924 54.2634C79.8638 54.2634 81.005 53.557 82.2439 52.405L83.8741 54.0569C82.3635 55.6219 80.7115 56.6217 78.0054 56.6217C73.7778 56.6217 70.6587 53.3396 70.6587 49.1881Z" fill="white" stroke="white" stroke-width="0.135849" stroke-miterlimit="10"/>
<path d="M91.2432 41.9175H93.7863V56.3718H91.2432V41.9175Z" fill="white" stroke="white" stroke-width="0.135849" stroke-miterlimit="10"/>
<path d="M96.8184 41.9175H99.1767L106.915 51.9051V41.9175H109.414V56.3718H107.284L99.318 46.0908V56.3718H96.8184V41.9175Z" fill="white" stroke="white" stroke-width="0.135849" stroke-miterlimit="10"/>
<path d="M112.305 41.9175H114.664L122.401 51.9051V41.9175H124.901V56.3718H122.771L114.805 46.0908V56.3718H112.305V41.9175Z" fill="white" stroke="white" stroke-width="0.135849" stroke-miterlimit="10"/>
<path d="M127.151 49.1881V49.1446C127.151 45.08 130.292 41.6675 134.726 41.6675C139.16 41.6675 142.257 45.0365 142.257 49.1011V49.1446C142.257 53.2092 139.116 56.6217 134.682 56.6217C130.248 56.6217 127.151 53.2527 127.151 49.1881ZM139.606 49.1881V49.1446C139.606 46.3407 137.562 44.0258 134.693 44.0258C131.824 44.0258 129.824 46.2972 129.824 49.1011V49.1446C129.824 51.9485 131.868 54.2634 134.737 54.2634C137.606 54.2634 139.606 51.992 139.606 49.1881Z" fill="white" stroke="white" stroke-width="0.135849" stroke-miterlimit="10"/>
<path d="M142.376 41.9175H145.18L149.538 53.0245L153.875 41.9175H156.624L150.636 56.4696H148.365L142.376 41.9175Z" fill="white" stroke="white" stroke-width="0.135849" stroke-miterlimit="10"/>
<path d="M161.33 41.8198H163.688L170.046 56.372H167.362L165.894 52.8834H159.059L157.57 56.372H154.972L161.33 41.8198ZM164.96 50.6337L162.46 44.852L159.982 50.6337H164.96Z" fill="white" stroke="white" stroke-width="0.135849" stroke-miterlimit="10"/>
<path d="M173.383 44.2758H168.775V41.9175H180.523V44.2758H175.915V56.3718H173.372V44.2758H173.383Z" fill="white" stroke="white" stroke-width="0.135849" stroke-miterlimit="10"/>
<path d="M182.49 41.9175H185.033V56.3718H182.49V41.9175Z" fill="white" stroke="white" stroke-width="0.135849" stroke-miterlimit="10"/>
<path d="M187.424 49.1881V49.1446C187.424 45.08 190.565 41.6675 194.999 41.6675C199.433 41.6675 202.531 45.0365 202.531 49.1011V49.1446C202.531 53.2092 199.39 56.6217 194.956 56.6217C190.522 56.6217 187.424 53.2527 187.424 49.1881ZM199.879 49.1881V49.1446C199.879 46.3407 197.836 44.0258 194.967 44.0258C192.098 44.0258 190.098 46.2972 190.098 49.1011V49.1446C190.098 51.9485 192.141 54.2634 195.01 54.2634C197.879 54.2634 199.879 51.992 199.879 49.1881Z" fill="white" stroke="white" stroke-width="0.135849" stroke-miterlimit="10"/>
<path d="M204.791 41.9175H207.149L214.887 51.9051V41.9175H217.387V56.3718H215.257L207.291 46.0908V56.3718H204.791V41.9175Z" fill="white" stroke="white" stroke-width="0.135849" stroke-miterlimit="10"/>
<path d="M225.647 41.9175H231.341C234.732 41.9175 236.83 43.8411 236.83 46.7537V46.7972C236.83 50.0358 234.232 51.7312 231.048 51.7312H228.179V56.3718H225.636V41.9175H225.647ZM231.146 49.4381C233.069 49.4381 234.265 48.3622 234.265 46.8515V46.808C234.265 45.1127 233.048 44.2324 231.146 44.2324H228.19V49.4381H231.146Z" fill="white" stroke="white" stroke-width="0.135849" stroke-miterlimit="10"/>
<path d="M238.612 41.9175H245.056C246.871 41.9175 248.295 42.45 249.23 43.3629C249.991 44.1454 250.425 45.2213 250.425 46.482V46.5255C250.425 48.8947 249.002 50.3293 247.002 50.9053L250.903 56.3718H247.893L244.339 51.3291H241.155V56.3718H238.612V41.9175ZM244.872 49.0794C246.687 49.0794 247.85 48.1339 247.85 46.6668V46.6233C247.85 45.08 246.73 44.2324 244.861 44.2324H241.166V49.0794H244.872Z" fill="white" stroke="white" stroke-width="0.135849" stroke-miterlimit="10"/>
<path d="M252.86 41.9175H255.403V56.3718H252.86V41.9175Z" fill="white" stroke="white" stroke-width="0.135849" stroke-miterlimit="10"/>
<path d="M257.902 54.4917L266.445 44.1671H258.185V41.9175H269.77V43.7976L261.228 54.1222H269.77V56.3718H257.902V54.4917Z" fill="white" stroke="white" stroke-width="0.135849" stroke-miterlimit="10"/>
<path d="M272.107 41.9175H282.823V44.1889H274.65V47.9492H281.899V50.2423H274.65V54.1004H282.931V56.3718H272.118V41.9175H272.107Z" fill="white" stroke="white" stroke-width="0.135849" stroke-miterlimit="10"/>
<path d="M59.1064 62.5664H63.9535C66.8335 62.5664 68.6268 64.1966 68.6268 66.6745V66.7071C68.6268 69.4675 66.4206 70.9021 63.7144 70.9021H61.28V74.8472H59.1173V62.5664H59.1064ZM63.7797 68.9567C65.4098 68.9567 66.4314 68.0438 66.4314 66.7614V66.7288C66.4314 65.2943 65.399 64.5335 63.7797 64.5335H61.2692V68.9567H63.7797Z" fill="white" stroke="white" stroke-width="0.135849" stroke-miterlimit="10"/>
<path d="M69.583 68.7395V68.7069C69.583 65.2509 72.2457 62.3491 76.0277 62.3491C79.8097 62.3491 82.4289 65.2074 82.4289 68.6634V68.696C82.4289 72.152 79.7663 75.0537 75.9842 75.0537C72.2022 75.0537 69.583 72.2063 69.583 68.7395ZM80.1684 68.7395V68.7069C80.1684 66.3159 78.4295 64.3597 75.9951 64.3597C73.5607 64.3597 71.8544 66.2942 71.8544 68.6743V68.7069C71.8544 71.0978 73.5933 73.0649 76.0277 73.0649C78.473 73.0649 80.1684 71.1304 80.1684 68.7395Z" fill="white" stroke="white" stroke-width="0.135849" stroke-miterlimit="10"/>
<path d="M82.7222 62.5668H85.0588L87.9931 71.6741L91.0144 62.5342H92.8402L95.8615 71.6741L98.7958 62.5668H101.056L96.7961 74.9345H94.916L91.8947 66.1097L88.8734 74.9345H86.9933L82.7222 62.5668Z" fill="white" stroke="white" stroke-width="0.135849" stroke-miterlimit="10"/>
<path d="M102.546 62.5664H111.653V64.5009H104.709V67.6961H110.871V69.6414H104.709V72.9235H111.751V74.858H102.557V62.5664H102.546Z" fill="white" stroke="white" stroke-width="0.135849" stroke-miterlimit="10"/>
<path d="M113.609 62.5664H119.086C120.63 62.5664 121.847 63.0229 122.629 63.7945C123.281 64.4574 123.651 65.3703 123.651 66.4463V66.4789C123.651 68.5003 122.445 69.7066 120.738 70.1957L124.053 74.8472H121.488L118.467 70.5652H115.761V74.8472H113.598V62.5664H113.609ZM118.923 68.6524C120.467 68.6524 121.456 67.8482 121.456 66.5984V66.5658C121.456 65.2508 120.51 64.5335 118.913 64.5335H115.772V68.6524H118.923Z" fill="white" stroke="white" stroke-width="0.135849" stroke-miterlimit="10"/>
<path d="M125.597 62.5664H134.704V64.5009H127.759V67.6961H133.922V69.6414H127.759V72.9235H134.802V74.858H125.608V62.5664H125.597Z" fill="white" stroke="white" stroke-width="0.135849" stroke-miterlimit="10"/>
<path d="M136.649 62.5664H141.224C145.082 62.5664 147.756 65.2182 147.756 68.6742V68.7068C147.756 72.1628 145.093 74.8472 141.224 74.8472H136.649V62.5664ZM138.812 64.5335V72.8909H141.235C143.811 72.8909 145.495 71.1521 145.495 68.7503V68.7177C145.495 66.3158 143.811 64.5444 141.235 64.5444H138.812V64.5335Z" fill="white" stroke="white" stroke-width="0.135849" stroke-miterlimit="10"/>
<path d="M154.244 62.5664H159.754C161.156 62.5664 162.265 62.9577 162.971 63.6532C163.514 64.1966 163.797 64.8813 163.797 65.6855V65.7181C163.797 67.1961 162.949 67.9786 162.047 68.4568C163.482 68.9459 164.482 69.7718 164.482 71.4455V71.4781C164.482 73.6734 162.678 74.8472 159.939 74.8472H154.255V62.5664H154.244ZM161.623 66.0441C161.623 65.0769 160.852 64.4792 159.461 64.4792H156.353V67.7395H159.298C160.689 67.7395 161.613 67.1961 161.613 66.0767V66.0441H161.623ZM159.787 69.5654H156.363V72.9344H159.939C161.395 72.9344 162.308 72.3584 162.308 71.2499V71.2173C162.308 70.1848 161.493 69.5654 159.787 69.5654Z" fill="white" stroke="white" stroke-width="0.135849" stroke-miterlimit="10"/>
<path d="M169.296 70.0109L164.417 62.5664H166.981L170.405 67.9895L173.882 62.5664H176.36L171.481 69.9566V74.8472H169.307V70.0109H169.296Z" fill="white" stroke="white" stroke-width="0.135849" stroke-miterlimit="10"/>
<path d="M181.36 73.1847L182.697 71.6198C183.675 72.5327 184.718 73.0978 185.859 73.0978C187.337 73.0978 188.294 72.2501 188.294 70.9785V70.9459C188.294 69.6961 187.239 68.9136 185.751 68.9136C184.87 68.9136 184.12 69.1636 183.49 69.457L182.197 68.5985L182.544 62.5776H189.902V64.5121H184.414L184.218 67.3704C184.794 67.1639 185.338 67.0226 186.164 67.0226C188.554 67.0226 190.445 68.2833 190.445 70.8807V70.9133C190.445 73.4238 188.598 75.0758 185.881 75.0758C183.99 75.0649 182.512 74.3041 181.36 73.1847Z" fill="white" stroke="white" stroke-width="0.135849" stroke-miterlimit="10"/>
<path d="M191.445 73.1522L195.673 69.5549C197.336 68.1203 197.977 67.3487 197.977 66.2402C197.977 65.0447 197.118 64.3274 195.999 64.3274C194.88 64.3274 194.108 64.9469 193.173 66.175L191.63 64.9686C192.804 63.3385 193.967 62.4038 196.162 62.4038C198.564 62.4038 200.216 63.8818 200.216 66.0772V66.1098C200.216 68.0551 199.194 69.0985 197.021 70.8699L194.488 72.9783H200.335V74.8693H191.456V73.1522H191.445Z" fill="white" stroke="white" stroke-width="0.135849" stroke-miterlimit="10"/>
<path d="M202.226 62.5664H204.389V67.6743H210.247V62.5664H212.409V74.8472H210.247V69.674H204.389V74.8472H202.226V62.5664Z" fill="white" stroke="white" stroke-width="0.135849" stroke-miterlimit="10"/>
<path d="M214.409 73.2496L221.669 64.4792H214.648V62.5664H224.495V64.164L217.235 72.9344H224.495V74.8472H214.409V73.2496Z" fill="white" stroke="white" stroke-width="0.135849" stroke-miterlimit="10"/>
</g>
<defs>
<clipPath id="clip0">
<rect width="282.24" height="75.13" fill="white" transform="translate(0.756836)"/>
</clipPath>
</defs>
</svg>
