<svg width="276" height="68" viewBox="0 0 276 68" fill="none" xmlns="http://www.w3.org/2000/svg">
<g clip-path="url(#clip0)">
<path d="M95.2374 25.9388L85.623 0.684028H75.7969V40.0482H82.6154V11.8402L93.245 40.0482H96.98L107.702 11.7696V40.0482H114.607V0.684028H104.83L95.2374 25.9388ZM52.6648 0C40.5694 0 32.0462 9.08238 32.0462 20.3851C32.0462 31.7422 40.488 40.7268 52.5942 40.7268C64.6895 40.7268 73.2127 31.6607 73.2127 20.32C73.2073 9.00094 64.7547 0 52.6648 0ZM52.6648 34.3751C44.8527 34.3751 39.3099 28.17 39.3099 20.3254C39.3099 12.4862 44.7713 6.35712 52.5888 6.35712C60.4062 6.35712 65.9544 12.5514 65.9544 20.3851C65.9599 28.246 60.4822 34.3751 52.6648 34.3751ZM33.6097 0.684028H0V6.97057H13.3983V40.0482H20.3851V6.97057H33.6097V0.684028Z" fill="white"/>
<path d="M132.561 40.0482H139.477V24.8802H160.161V18.5828H139.477V6.97057H161.865V0.684028H132.561V40.0482V40.0482ZM237.803 12.3505C237.803 5.01078 232.82 0.684028 223.656 0.684028H206.224V40.0482H213.135V24.8259H221.805L231.522 40.0482H239.671L229.193 23.6533C234.008 22.4698 237.803 19.0659 237.803 12.3505ZM213.135 18.5773V6.97057H222.288C227.402 6.97057 230.686 8.28977 230.686 12.5731C230.686 16.2918 227.716 18.5773 222.364 18.5773H213.135ZM255.164 0.684028H240.398V40.0482H255.078C267.982 40.0482 276 31.4327 276 20.2928C276 8.8978 267.814 0.684028 255.164 0.684028ZM255.078 33.74H247.304V6.97057H255.078C263.601 6.97057 268.742 12.6654 268.742 20.4068C268.736 28.3166 263.422 33.74 255.078 33.74ZM183.113 0C171.024 0 162.495 9.08238 162.495 20.3851C162.495 31.7422 170.953 40.7268 183.037 40.7268C195.122 40.7268 203.645 31.6607 203.645 20.32C203.651 9.00094 195.209 0 183.113 0ZM183.113 34.3751C175.296 34.3751 169.748 28.17 169.748 20.3254C169.748 12.4862 175.225 6.35712 183.037 6.35712C190.855 6.35712 196.403 12.5514 196.403 20.3851C196.409 28.246 190.936 34.3751 183.113 34.3751Z" fill="white"/>
<path d="M31.1284 57.1116V57.0573C31.1284 51.5959 35.3412 47.0249 41.302 47.0249C47.2628 47.0249 51.4213 51.5417 51.4213 57.003V57.0573C51.4213 62.5187 47.2085 67.0897 41.2477 67.0897C35.2869 67.0952 31.1284 62.573 31.1284 57.1116ZM47.8437 57.1116V57.0573C47.8437 53.2843 45.1021 50.1845 41.2477 50.1845C37.3933 50.1845 34.706 53.2354 34.706 57.003V57.0573C34.706 60.8249 37.4475 63.9302 41.302 63.9302C45.1564 63.9302 47.8437 60.8846 47.8437 57.1116Z" fill="white"/>
<path d="M53.0229 57.1111V57.0568C53.0229 51.5412 57.1543 47.0244 63.0011 47.0244C66.6058 47.0244 68.7665 48.273 70.6231 50.0483L68.4353 52.5726C66.8555 51.1286 65.2215 50.1894 62.9739 50.1894C59.3149 50.1894 56.6005 53.2078 56.6005 57.008V57.0623C56.6005 60.8624 59.2878 63.9351 63.0011 63.9351C65.3843 63.9351 66.9098 62.9905 68.571 61.4433L70.7588 63.6582C68.7339 65.7646 66.5189 67.0947 62.8871 67.0947C57.2086 67.0947 53.0229 62.6865 53.0229 57.1111Z" fill="white"/>
<path d="M72.7022 47.3555H87.0885V50.4064H76.1115V55.4498H85.8399V58.5279H76.1115V63.7124H87.2242V66.7634H72.6968V47.3555H72.7022Z" fill="white"/>
<path d="M96.4804 47.2197H99.6399L108.179 66.7634H104.575L102.604 62.0783H93.4294L91.4316 66.7634H87.9463L96.4804 47.2197ZM101.361 59.0545L98.0058 51.2913L94.678 59.0545H101.361Z" fill="white"/>
<path d="M109.841 47.3555H113L123.397 60.77V47.3555H126.752V66.758H123.896L113.196 52.9526V66.758H109.841V47.3555Z" fill="white"/>
<path d="M136.724 47.3555H144.373C148.917 47.3555 151.746 49.9341 151.746 53.8429V53.8972C151.746 58.2511 148.255 60.5203 143.982 60.5203H140.128V66.758H136.719V47.3555H136.724ZM144.096 57.4476C146.675 57.4476 148.282 56.0035 148.282 53.984V53.9297C148.282 51.6551 146.648 50.4662 144.096 50.4662H140.133V57.453H144.096V57.4476Z" fill="white"/>
<path d="M153.57 47.3555H156.979V63.6527H167.18V66.758H153.57V47.3555Z" fill="white"/>
<path d="M175.909 47.2197H179.069L187.608 66.7634H184.003L182.033 62.0783H172.858L170.86 66.7634H167.37L175.909 47.2197ZM180.79 59.0545L177.435 51.2913L174.107 59.0545H180.79Z" fill="white"/>
<path d="M187.663 63.9295L189.715 61.492C191.571 63.0989 193.455 64.0164 195.838 64.0164C197.945 64.0164 199.275 63.0175 199.275 61.5789V61.5246C199.275 60.1402 198.498 59.3911 194.894 58.5605C190.762 57.5616 188.433 56.3455 188.433 52.7679V52.7136C188.433 49.3858 191.208 47.084 195.057 47.084C197.885 47.084 200.127 47.9417 202.098 49.5215L200.268 52.1002C198.52 50.7973 196.778 50.1024 195.002 50.1024C193.005 50.1024 191.843 51.1284 191.843 52.4042V52.4585C191.843 53.9568 192.728 54.6192 196.474 55.5095C200.578 56.5084 202.684 57.9741 202.684 61.1934V61.2477C202.684 64.8796 199.829 67.0402 195.752 67.0402C192.793 67.0348 189.992 66.0088 187.663 63.9295Z" fill="white"/>
<path d="M209.388 50.515H203.205V47.3555H218.976V50.515H212.792V66.758H209.383V50.515H209.388Z" fill="white"/>
<path d="M221.061 47.3555H224.47V66.758H221.061V47.3555Z" fill="white"/>
<path d="M227.125 57.1111V57.0568C227.125 51.5412 231.256 47.0244 237.103 47.0244C240.707 47.0244 242.868 48.273 244.725 50.0483L242.537 52.5726C240.957 51.1286 239.323 50.1894 237.076 50.1894C233.416 50.1894 230.702 53.2078 230.702 57.008V57.0623C230.702 60.8624 233.389 63.9351 237.108 63.9351C239.491 63.9351 241.017 62.9905 242.678 61.4433L244.866 63.6582C242.841 65.7646 240.626 67.0947 236.994 67.0947C231.31 67.0947 227.125 62.6865 227.125 57.1111Z" fill="white"/>
</g>
<defs>
<clipPath id="clip0">
<rect width="276" height="67.0945" fill="white"/>
</clipPath>
</defs>
</svg>
